<svg width="42" height="28" viewBox="0 0 42 28" fill="none" xmlns="http://www.w3.org/2000/svg">
<path d="M2.33333 27.9682H28C29.2833 27.9682 30.3333 26.9194 30.3333 25.6376C30.3333 24.3557 29.2833 23.3069 28 23.3069H2.33333C1.05 23.3069 0 24.3557 0 25.6376C0 26.9194 1.05 27.9682 2.33333 27.9682ZM2.33333 16.3148H21C22.2833 16.3148 23.3333 15.266 23.3333 13.9841C23.3333 12.7022 22.2833 11.6534 21 11.6534H2.33333C1.05 11.6534 0 12.7022 0 13.9841C0 15.266 1.05 16.3148 2.33333 16.3148ZM0 2.33069C0 3.61256 1.05 4.66137 2.33333 4.66137H28C29.2833 4.66137 30.3333 3.61256 30.3333 2.33069C30.3333 1.04881 29.2833 0 28 0H2.33333C1.05 0 0 1.04881 0 2.33069ZM40.3667 20.6965L33.6467 13.9841L40.3667 7.27174C40.5827 7.05596 40.754 6.79979 40.871 6.51786C40.9879 6.23594 41.048 5.93377 41.048 5.62861C41.048 5.32345 40.9879 5.02128 40.871 4.73935C40.754 4.45742 40.5827 4.20125 40.3667 3.98547C40.1506 3.76969 39.8942 3.59853 39.6119 3.48175C39.3297 3.36497 39.0272 3.30486 38.7217 3.30486C38.4162 3.30486 38.1136 3.36497 37.8314 3.48175C37.5491 3.59853 37.2927 3.76969 37.0767 3.98547L28.7 12.3526C28.4837 12.5683 28.3121 12.8244 28.195 13.1063C28.0779 13.3883 28.0176 13.6905 28.0176 13.9958C28.0176 14.301 28.0779 14.6033 28.195 14.8852C28.3121 15.1672 28.4837 15.4233 28.7 15.6389L37.0767 24.0061C37.9867 24.915 39.4567 24.915 40.3667 24.0061C41.2533 23.0971 41.2767 21.6055 40.3667 20.6965Z" fill="white"/>
</svg>
